<svg xmlns="http://www.w3.org/2000/svg" width="50" height="50" fill="none" viewBox="0 0 226 226" >
<path  fill="#fff104" d="M113,226c-62.40818,0 -113,-50.59182 -113,-113v0c0,-62.40818 50.59182,-113 113,-113h0c62.40818,0 113,50.59182 113,113v0c0,62.40818 -50.59182,113 -113,113z"></path>
<path fill="#333333" d="M87.22665,52.9744c-13.6082,0 -25.50488,3.45658 -34.49871,11.25906c-6.66147,5.77216 -11.3094,14.07802 -14.22904,24.36387c-0.83897,2.43303 -1.54372,5.03386 -2.11422,7.7857c-1.51016,0.11746 -2.98676,0.13424 -4.61437,0.58728c-2.88608,0.78863 -5.95673,2.09744 -8.10451,4.96674v0.01678c-4.66471,6.20842 -11.81279,16.93054 -13.40684,31.19314c-0.21813,1.84575 -0.35237,3.75861 -0.35237,5.7386c0,6.12453 3.70827,10.94025 7.75214,14.38005c3.42302,2.91964 7.21519,4.98352 10.63822,6.24198c3.30557,10.43687 13.07125,18.03799 24.56523,18.03799c11.17517,0 20.70594,-7.19842 24.2632,-17.18223h76.04481c3.55726,9.98382 13.08803,17.18223 24.26319,17.18223c12.81956,0 23.49134,-9.48043 25.43776,-21.77982c3.27201,-0.48661 6.10775,-1.59406 8.33942,-3.32235c3.08743,-2.41625 4.88284,-6.05741 4.88284,-9.7489v-21.62881c0,-2.90286 -1.12423,-5.28555 -3.15455,-8.27231c-2.01354,-2.96998 -5.06741,-6.2252 -9.39653,-9.27908c-8.27231,-5.83928 -21.59525,-10.63822 -40.75747,-11.52754c-4.01031,-5.75537 -8.02062,-12.03092 -16.14191,-24.21285c-1.62761,-2.44981 -2.93641,-4.63115 -4.71505,-6.69503c-1.76185,-2.06388 -4.11098,-3.90963 -7.1313,-5.13454c-6.02385,-2.44981 -14.29616,-2.96998 -30.38772,-2.96998zM87.22665,74.45219h34.36447c4.93318,0 5.87284,0.18458 8.59112,4.29556l12.88668,21.47779h-55.84226zM78.63553,74.78778v25.43776h-21.47779c0.41949,-11.74567 7.24876,-23.47456 21.47779,-25.43776zM95.81777,113.11222h12.88668c2.36591,0 4.29556,1.92965 4.29556,4.29556c0,2.36591 -1.92965,4.29556 -4.29556,4.29556h-12.88668c-2.36591,0 -4.29556,-1.92965 -4.29556,-4.29556c0,-2.36591 1.92965,-4.29556 4.29556,-4.29556zM52.86218,134.59001c9.54755,0 17.18223,7.63469 17.18223,17.18223c0,9.54755 -7.63469,17.18223 -17.18223,17.18223c-9.54755,0 -17.18223,-7.63469 -17.18223,-17.18223c0,-9.54755 7.63469,-17.18223 17.18223,-17.18223zM177.43338,134.59001c9.54755,0 17.18223,7.63469 17.18223,17.18223c0,9.54755 -7.63469,17.18223 -17.18223,17.18223c-9.54755,0 -17.18223,-7.63469 -17.18223,-17.18223c0,-9.54755 7.63469,-17.18223 17.18223,-17.18223z"></path>
</svg>
